<svg xmlns="http://www.w3.org/2000/svg" viewBox="0 0 540 205">
  <style>
    .bg { fill: #f8f9fa; }
    .dot { fill: #999; opacity: 0.4; }
    .dot-r { fill: #999; opacity: 0.4; }
    .anno { font-family: 'Arial', sans-serif; font-size: 9px; fill: #888; }
    .anno-b { font-family: 'Arial', sans-serif; font-size: 9.5px; fill: #666; font-weight: bold; }
    .label { font-family: 'Georgia', serif; font-size: 10.5px; fill: #555; font-style: italic; }
    .title { font-family: 'Arial', sans-serif; font-size: 10.5px; fill: #444; font-weight: bold; }
    .proj { stroke: #ccc; stroke-width: 0.9; stroke-dasharray: 3,2; fill: none; }
    .axis-line { stroke: #ddd; stroke-width: 0.7; }
  </style>
  <defs>
    <marker id="arr-b" markerWidth="7" markerHeight="5" refX="7" refY="2.5" orient="auto">
      <path d="M0,0.5 L6,2.5 L0,4.5 Z" fill="#1890ff"/>
    </marker>
    <marker id="arr-o" markerWidth="7" markerHeight="5" refX="7" refY="2.5" orient="auto">
      <path d="M0,0.5 L6,2.5 L0,4.5 Z" fill="#fa8c16"/>
    </marker>
    <marker id="arr-g" markerWidth="6" markerHeight="4" refX="6" refY="2" orient="auto">
      <path d="M0,0 L6,2 L0,4 Z" fill="#999"/>
    </marker>
  </defs>

  <rect width="540" height="205" class="bg"/>

  <!-- Panel titles -->
  <text x="145" y="18" class="title" text-anchor="middle">original data</text>
  <text x="400" y="18" class="title" text-anchor="middle">after PCA projection</text>

  <!-- ==================== LEFT PANEL ==================== -->

  <!-- Point cloud -->
  <circle cx="160.4" cy="113.2" r="2.2" class="dot"/>
  <circle cx="105.9" cy="95.8" r="2.2" class="dot"/>
  <circle cx="168.1" cy="137.0" r="2.2" class="dot"/>
  <circle cx="173.0" cy="144.3" r="2.2" class="dot"/>
  <circle cx="68.3" cy="85.1" r="2.2" class="dot"/>
  <circle cx="91.3" cy="99.3" r="2.2" class="dot"/>
  <circle cx="148.0" cy="120.0" r="2.2" class="dot"/>
  <circle cx="132.5" cy="109.9" r="2.2" class="dot"/>
  <circle cx="137.3" cy="126.5" r="2.2" class="dot"/>
  <circle cx="111.9" cy="100.9" r="2.2" class="dot"/>
  <circle cx="179.3" cy="128.3" r="2.2" class="dot"/>
  <circle cx="175.0" cy="127.4" r="2.2" class="dot"/>
  <circle cx="148.4" cy="114.2" r="2.2" class="dot"/>
  <circle cx="180.1" cy="147.5" r="2.2" class="dot"/>
  <circle cx="158.0" cy="131.0" r="2.2" class="dot"/>
  <circle cx="107.7" cy="107.7" r="2.2" class="dot"/>
  <circle cx="157.0" cy="124.4" r="2.2" class="dot"/>
  <circle cx="106.5" cy="101.4" r="2.2" class="dot"/>
  <circle cx="170.6" cy="143.3" r="2.2" class="dot"/>
  <circle cx="141.4" cy="116.6" r="2.2" class="dot"/>
  <circle cx="133.1" cy="119.9" r="2.2" class="dot"/>
  <circle cx="120.3" cy="100.7" r="2.2" class="dot"/>
  <circle cx="187.5" cy="142.7" r="2.2" class="dot"/>
  <circle cx="138.0" cy="113.9" r="2.2" class="dot"/>
  <circle cx="131.8" cy="101.8" r="2.2" class="dot"/>
  <circle cx="126.9" cy="116.6" r="2.2" class="dot"/>
  <circle cx="163.1" cy="127.5" r="2.2" class="dot"/>
  <circle cx="154.9" cy="127.8" r="2.2" class="dot"/>
  <circle cx="154.5" cy="132.5" r="2.2" class="dot"/>
  <circle cx="155.3" cy="132.6" r="2.2" class="dot"/>
  <circle cx="215.9" cy="169.9" r="2.2" class="dot"/>
  <circle cx="127.6" cy="110.9" r="2.2" class="dot"/>
  <circle cx="125.3" cy="106.1" r="2.2" class="dot"/>
  <circle cx="112.8" cy="102.6" r="2.2" class="dot"/>
  <circle cx="171.7" cy="119.6" r="2.2" class="dot"/>
  <circle cx="189.1" cy="132.2" r="2.2" class="dot"/>
  <circle cx="143.7" cy="107.3" r="2.2" class="dot"/>
  <circle cx="116.1" cy="94.8" r="2.2" class="dot"/>
  <circle cx="110.3" cy="106.1" r="2.2" class="dot"/>
  <circle cx="169.4" cy="126.5" r="2.2" class="dot"/>
  <circle cx="170.3" cy="132.6" r="2.2" class="dot"/>
  <circle cx="155.5" cy="141.6" r="2.2" class="dot"/>
  <circle cx="119.4" cy="103.5" r="2.2" class="dot"/>
  <circle cx="146.8" cy="130.7" r="2.2" class="dot"/>
  <circle cx="150.3" cy="115.2" r="2.2" class="dot"/>
  <circle cx="150.6" cy="123.0" r="2.2" class="dot"/>
  <circle cx="177.5" cy="130.7" r="2.2" class="dot"/>
  <circle cx="151.4" cy="122.1" r="2.2" class="dot"/>
  <circle cx="162.4" cy="140.9" r="2.2" class="dot"/>
  <circle cx="152.1" cy="107.9" r="2.2" class="dot"/>
  <circle cx="150.2" cy="129.5" r="2.2" class="dot"/>
  <circle cx="163.5" cy="135.1" r="2.2" class="dot"/>
  <circle cx="92.0" cy="85.1" r="2.2" class="dot"/>
  <circle cx="136.9" cy="102.1" r="2.2" class="dot"/>
  <circle cx="124.5" cy="110.9" r="2.2" class="dot"/>
  <circle cx="121.2" cy="102.6" r="2.2" class="dot"/>
  <circle cx="130.8" cy="116.2" r="2.2" class="dot"/>
  <circle cx="195.6" cy="151.4" r="2.2" class="dot"/>
  <circle cx="103.3" cy="114.7" r="2.2" class="dot"/>
  <circle cx="177.8" cy="138.4" r="2.2" class="dot"/>

  <!-- Projection lines (dashed, from highlighted point to foot on PC1) -->
  <line x1="103.3" y1="114.7" x2="110.9" y2="101.1" class="proj"/>
  <line x1="152.1" y1="107.9" x2="145.3" y2="120.2" class="proj"/>
  <line x1="155.5" y1="141.6" x2="162.2" y2="129.5" class="proj"/>
  <line x1="189.1" y1="132.2" x2="183.8" y2="141.6" class="proj"/>

  <!-- Feet on PC1 axis (small blue dots) -->
  <circle cx="110.9" cy="101.1" r="2" fill="#1890ff" opacity="0.5"/>
  <circle cx="145.3" cy="120.2" r="2" fill="#1890ff" opacity="0.5"/>
  <circle cx="162.2" cy="129.5" r="2" fill="#1890ff" opacity="0.5"/>
  <circle cx="183.8" cy="141.6" r="2" fill="#1890ff" opacity="0.5"/>

  <!-- PC1 axis arrow (blue, long) -->
  <line x1="210.6" y1="156.4" x2="79.4" y2="83.6" stroke="#1890ff" stroke-width="1.8" marker-end="url(#arr-b)"/>

  <!-- PC2 axis arrow (orange, short) -->
  <line x1="131.4" y1="144.5" x2="158.6" y2="95.5" stroke="#fa8c16" stroke-width="1.8" marker-end="url(#arr-o)"/>

  <!-- Highlighted points (red rings, on top) -->
  <circle cx="103.3" cy="114.7" r="3.3" fill="none" stroke="#e8544e" stroke-width="1.4"/>
  <circle cx="152.1" cy="107.9" r="3.3" fill="none" stroke="#e8544e" stroke-width="1.4"/>
  <circle cx="155.5" cy="141.6" r="3.3" fill="none" stroke="#e8544e" stroke-width="1.4"/>
  <circle cx="189.1" cy="132.2" r="3.3" fill="none" stroke="#e8544e" stroke-width="1.4"/>

  <!-- PC labels -->
  <text x="67" y="80" class="anno-b" fill="#1890ff">PC1</text>
  <text x="67" y="90" class="anno" fill="#1890ff">most spread</text>
  <text x="161" y="92" class="anno-b" fill="#fa8c16">PC2</text>

  <!-- "project" annotation -->
  <text x="97" y="109" class="anno" text-anchor="end" fill="#aaa">project</text>

  <!-- ==================== ARROW BETWEEN PANELS ==================== -->
  <line x1="246" y1="120" x2="274" y2="120" stroke="#999" stroke-width="1" marker-end="url(#arr-g)"/>
  <text x="260" y="113" class="anno" text-anchor="middle">PCA</text>

  <!-- ==================== RIGHT PANEL ==================== -->

  <!-- Thin axis lines -->
  <line x1="318" y1="120" x2="482" y2="120" class="axis-line"/>
  <line x1="400" y1="95" x2="400" y2="145" class="axis-line"/>

  <!-- Point cloud (projected, axis-aligned) -->
  <circle cx="392.2" cy="130.4" r="2.2" class="dot-r"/>
  <circle cx="435.3" cy="121.6" r="2.2" class="dot-r"/>
  <circle cx="378.1" cy="117.2" r="2.2" class="dot-r"/>
  <circle cx="372.1" cy="114.1" r="2.2" class="dot-r"/>
  <circle cx="464.6" cy="114.8" r="2.2" class="dot-r"/>
  <circle cx="443.9" cy="113.9" r="2.2" class="dot-r"/>
  <circle cx="398.0" cy="121.1" r="2.2" class="dot-r"/>
  <circle cx="412.2" cy="122.1" r="2.2" class="dot-r"/>
  <circle cx="402.7" cy="112.7" r="2.2" class="dot-r"/>
  <circle cx="429.4" cy="120.5" r="2.2" class="dot-r"/>
  <circle cx="373.8" cy="127.2" r="2.2" class="dot-r"/>
  <circle cx="377.1" cy="126.3" r="2.2" class="dot-r"/>
  <circle cx="399.9" cy="125.1" r="2.2" class="dot-r"/>
  <circle cx="366.1" cy="114.7" r="2.2" class="dot-r"/>
  <circle cx="387.2" cy="117.5" r="2.2" class="dot-r"/>
  <circle cx="429.7" cy="114.4" r="2.2" class="dot-r"/>
  <circle cx="390.3" cy="121.5" r="2.2" class="dot-r"/>
  <circle cx="432.8" cy="118.1" r="2.2" class="dot-r"/>
  <circle cx="374.1" cy="113.9" r="2.2" class="dot-r"/>
  <circle cx="403.7" cy="120.9" r="2.2" class="dot-r"/>
  <circle cx="408.1" cy="115.6" r="2.2" class="dot-r"/>
  <circle cx="423.8" cy="123.7" r="2.2" class="dot-r"/>
  <circle cx="363.0" cy="120.6" r="2.2" class="dot-r"/>
  <circle cx="407.0" cy="121.5" r="2.2" class="dot-r"/>
  <circle cx="415.7" cy="127.3" r="2.2" class="dot-r"/>
  <circle cx="413.4" cy="115.5" r="2.2" class="dot-r"/>
  <circle cx="385.0" cy="121.7" r="2.2" class="dot-r"/>
  <circle cx="390.4" cy="118.5" r="2.2" class="dot-r"/>
  <circle cx="389.0" cy="115.2" r="2.2" class="dot-r"/>
  <circle cx="388.4" cy="115.4" r="2.2" class="dot-r"/>
  <circle cx="333.7" cy="112.9" r="2.2" class="dot-r"/>
  <circle cx="415.1" cy="119.6" r="2.2" class="dot-r"/>
  <circle cx="418.5" cy="122.0" r="2.2" class="dot-r"/>
  <circle cx="428.1" cy="119.7" r="2.2" class="dot-r"/>
  <circle cx="382.2" cy="130.2" r="2.2" class="dot-r"/>
  <circle cx="365.8" cy="128.3" r="2.2" class="dot-r"/>
  <circle cx="405.6" cy="128.0" r="2.2" class="dot-r"/>
  <circle cx="428.9" cy="126.2" r="2.2" class="dot-r"/>
  <circle cx="428.5" cy="116.4" r="2.2" class="dot-r"/>
  <circle cx="381.2" cy="124.7" r="2.2" class="dot-r"/>
  <circle cx="378.3" cy="121.0" r="2.2" class="dot-r"/>
  <circle cx="384.9" cy="109.4" r="2.2" class="dot-r"/>
  <circle cx="423.4" cy="121.6" r="2.2" class="dot-r"/>
  <circle cx="394.8" cy="113.4" r="2.2" class="dot-r"/>
  <circle cx="398.3" cy="125.2" r="2.2" class="dot-r"/>
  <circle cx="395.1" cy="120.1" r="2.2" class="dot-r"/>
  <circle cx="374.1" cy="124.9" r="2.2" class="dot-r"/>
  <circle cx="394.9" cy="121.0" r="2.2" class="dot-r"/>
  <circle cx="380.5" cy="112.5" r="2.2" class="dot-r"/>
  <circle cx="399.7" cy="130.8" r="2.2" class="dot-r"/>
  <circle cx="392.9" cy="115.5" r="2.2" class="dot-r"/>
  <circle cx="381.9" cy="116.7" r="2.2" class="dot-r"/>
  <circle cx="448.7" cy="123.7" r="2.2" class="dot-r"/>
  <circle cx="412.2" cy="129.0" r="2.2" class="dot-r"/>
  <circle cx="417.2" cy="118.5" r="2.2" class="dot-r"/>
  <circle cx="422.5" cy="122.8" r="2.2" class="dot-r"/>
  <circle cx="410.9" cy="117.2" r="2.2" class="dot-r"/>
  <circle cx="354.3" cy="117.8" r="2.2" class="dot-r"/>
  <circle cx="430.0" cy="108.0" r="2.2" class="dot-r"/>
  <circle cx="371.1" cy="119.9" r="2.2" class="dot-r"/>

  <!-- Highlighted points in right panel (same 4) -->
  <circle cx="430.0" cy="108.0" r="3.3" fill="none" stroke="#e8544e" stroke-width="1.4"/>
  <circle cx="399.7" cy="130.8" r="3.3" fill="none" stroke="#e8544e" stroke-width="1.4"/>
  <circle cx="384.9" cy="109.4" r="3.3" fill="none" stroke="#e8544e" stroke-width="1.4"/>
  <circle cx="365.8" cy="128.3" r="3.3" fill="none" stroke="#e8544e" stroke-width="1.4"/>

  <!-- Right panel axis labels -->
  <text x="483" y="117" class="anno-b" fill="#1890ff">PC1</text>
  <text x="404" y="93" class="anno-b" fill="#fa8c16">PC2</text>

  <!-- Bottom annotation -->
  <text x="400" y="162" class="anno" text-anchor="middle">tilted cloud becomes axis-aligned</text>
  <text x="400" y="174" class="anno" text-anchor="middle">most spread is now horizontal (PC1)</text>

  <!-- Bottom summary -->
  <text x="270" y="196" class="label" text-anchor="middle">128 dimensions → 2 directions of greatest variation → plottable</text>
</svg>
