<svg xmlns="http://www.w3.org/2000/svg" viewBox="0 0 340 250">
  <style>
    .bg { fill: #f8f9fa; }
    .label-sm { font-family: 'Arial', sans-serif; font-size: 11px; text-anchor: middle; fill: #666; }
    .axis-label { font-family: 'Georgia', serif; font-size: 11px; fill: #555; font-style: italic; }
    .anno { font-family: 'Arial', sans-serif; font-size: 9px; fill: #888; }
    .grid { stroke: #eee; stroke-width: 0.5; }
  </style>
  <defs>
    <linearGradient id="ce-grad" x1="0" y1="0" x2="0" y2="1">
      <stop offset="0%" stop-color="#cf1322" stop-opacity="0.08"/>
      <stop offset="100%" stop-color="#cf1322" stop-opacity="0.02"/>
    </linearGradient>
  </defs>

  <rect width="340" height="250" class="bg"/>

  <!-- Grid -->
  <line x1="55" y1="153.3" x2="310" y2="153.3" class="grid"/>
  <line x1="55" y1="121.2" x2="310" y2="121.2" class="grid"/>
  <line x1="55" y1="89.2" x2="310" y2="89.2" class="grid"/>
  <line x1="55" y1="57.1" x2="310" y2="57.1" class="grid"/>
  <line x1="119.3" y1="25" x2="119.3" y2="185.4" class="grid"/>
  <line x1="178.9" y1="25" x2="178.9" y2="185.4" class="grid"/>
  <line x1="238.5" y1="25" x2="238.5" y2="185.4" class="grid"/>

  <!-- Axes -->
  <line x1="55" y1="185.4" x2="310" y2="185.4" stroke="#ccc" stroke-width="1"/>
  <line x1="55" y1="25" x2="55" y2="185.4" stroke="#ccc" stroke-width="1"/>

  <!-- Axis labels -->
  <text x="182" y="215" style="font-family:Georgia,serif;font-size:10px;fill:#555;font-style:italic" text-anchor="middle">predicted probability for correct class</text>
  <text x="31" y="105" class="axis-label" text-anchor="middle" transform="rotate(-90,31,105)">Loss</text>

  <!-- Ticks -->
  <line x1="59.8" y1="185.4" x2="59.8" y2="189.4" stroke="#999" stroke-width="0.6"/>
  <text x="59.8" y="199.4" text-anchor="middle" style="font-family:Georgia,serif;font-size:9px;fill:#999;font-style:italic">0</text>
  <line x1="119.3" y1="185.4" x2="119.3" y2="189.4" stroke="#999" stroke-width="0.6"/>
  <text x="119.3" y="199.4" text-anchor="middle" style="font-family:Georgia,serif;font-size:9px;fill:#999;font-style:italic">0.25</text>
  <line x1="178.9" y1="185.4" x2="178.9" y2="189.4" stroke="#999" stroke-width="0.6"/>
  <text x="178.9" y="199.4" text-anchor="middle" style="font-family:Georgia,serif;font-size:9px;fill:#999;font-style:italic">0.5</text>
  <line x1="238.5" y1="185.4" x2="238.5" y2="189.4" stroke="#999" stroke-width="0.6"/>
  <text x="238.5" y="199.4" text-anchor="middle" style="font-family:Georgia,serif;font-size:9px;fill:#999;font-style:italic">0.75</text>
  <line x1="298.1" y1="185.4" x2="298.1" y2="189.4" stroke="#999" stroke-width="0.6"/>
  <text x="298.1" y="199.4" text-anchor="middle" style="font-family:Georgia,serif;font-size:9px;fill:#999;font-style:italic">1</text>
  <line x1="52.0" y1="153.3" x2="55.0" y2="153.3" stroke="#999" stroke-width="0.6"/>
  <text x="48.0" y="156.3" text-anchor="end" style="font-family:Georgia,serif;font-size:9px;fill:#999;font-style:italic">1</text>
  <line x1="52.0" y1="121.2" x2="55.0" y2="121.2" stroke="#999" stroke-width="0.6"/>
  <text x="48.0" y="124.2" text-anchor="end" style="font-family:Georgia,serif;font-size:9px;fill:#999;font-style:italic">2</text>
  <line x1="52.0" y1="89.2" x2="55.0" y2="89.2" stroke="#999" stroke-width="0.6"/>
  <text x="48.0" y="92.2" text-anchor="end" style="font-family:Georgia,serif;font-size:9px;fill:#999;font-style:italic">3</text>
  <line x1="52.0" y1="57.1" x2="55.0" y2="57.1" stroke="#999" stroke-width="0.6"/>
  <text x="48.0" y="60.1" text-anchor="end" style="font-family:Georgia,serif;font-size:9px;fill:#999;font-style:italic">4</text>

  <!-- Curve fill -->
  <path d="M 61.7,30.5 L 61.7,30.5 L 62.9,46.0 L 64.0,56.5 L 65.2,64.3 L 66.4,70.6 L 67.6,75.9 L 68.8,80.4 L 70.0,84.4 L 71.2,87.9 L 72.4,91.1 L 73.6,94.0 L 74.7,96.6 L 75.9,99.1 L 77.1,101.3 L 78.3,103.5 L 79.5,105.5 L 80.7,107.3 L 81.9,109.1 L 83.1,110.8 L 84.2,112.4 L 85.4,113.9 L 86.6,115.4 L 87.8,116.7 L 89.0,118.1 L 90.2,119.3 L 91.4,120.6 L 92.6,121.8 L 93.7,122.9 L 94.9,124.0 L 96.1,125.1 L 97.3,126.1 L 98.5,127.1 L 99.7,128.1 L 100.9,129.0 L 102.1,129.9 L 103.3,130.8 L 104.4,131.7 L 105.6,132.5 L 106.8,133.3 L 108.0,134.1 L 109.2,134.9 L 110.4,135.7 L 111.6,136.4 L 112.8,137.2 L 113.9,137.9 L 115.1,138.6 L 116.3,139.2 L 117.5,139.9 L 118.7,140.6 L 119.9,141.2 L 121.1,141.8 L 122.3,142.4 L 123.4,143.0 L 124.6,143.6 L 125.8,144.2 L 127.0,144.8 L 128.2,145.4 L 129.4,145.9 L 130.6,146.5 L 131.8,147.0 L 133.0,147.5 L 134.1,148.0 L 135.3,148.5 L 136.5,149.0 L 137.7,149.5 L 138.9,150.0 L 140.1,150.5 L 141.3,151.0 L 142.5,151.4 L 143.6,151.9 L 144.8,152.3 L 146.0,152.8 L 147.2,153.2 L 148.4,153.7 L 149.6,154.1 L 150.8,154.5 L 152.0,154.9 L 153.1,155.3 L 154.3,155.7 L 155.5,156.1 L 156.7,156.5 L 157.9,156.9 L 159.1,157.3 L 160.3,157.7 L 161.5,158.1 L 162.7,158.4 L 163.8,158.8 L 165.0,159.2 L 166.2,159.5 L 167.4,159.9 L 168.6,160.2 L 169.8,160.6 L 171.0,160.9 L 172.2,161.3 L 173.3,161.6 L 174.5,161.9 L 175.7,162.3 L 176.9,162.6 L 178.1,162.9 L 179.3,163.2 L 180.5,163.6 L 181.7,163.9 L 182.8,164.2 L 184.0,164.5 L 185.2,164.8 L 186.4,165.1 L 187.6,165.4 L 188.8,165.7 L 190.0,166.0 L 191.2,166.3 L 192.4,166.6 L 193.5,166.9 L 194.7,167.1 L 195.9,167.4 L 197.1,167.7 L 198.3,168.0 L 199.5,168.2 L 200.7,168.5 L 201.9,168.8 L 203.0,169.1 L 204.2,169.3 L 205.4,169.6 L 206.6,169.8 L 207.8,170.1 L 209.0,170.4 L 210.2,170.6 L 211.4,170.9 L 212.5,171.1 L 213.7,171.4 L 214.9,171.6 L 216.1,171.9 L 217.3,172.1 L 218.5,172.3 L 219.7,172.6 L 220.9,172.8 L 222.1,173.1 L 223.2,173.3 L 224.4,173.5 L 225.6,173.7 L 226.8,174.0 L 228.0,174.2 L 229.2,174.4 L 230.4,174.7 L 231.6,174.9 L 232.7,175.1 L 233.9,175.3 L 235.1,175.5 L 236.3,175.8 L 237.5,176.0 L 238.7,176.2 L 239.9,176.4 L 241.1,176.6 L 242.2,176.8 L 243.4,177.0 L 244.6,177.2 L 245.8,177.4 L 247.0,177.6 L 248.2,177.8 L 249.4,178.0 L 250.6,178.2 L 251.8,178.4 L 252.9,178.6 L 254.1,178.8 L 255.3,179.0 L 256.5,179.2 L 257.7,179.4 L 258.9,179.6 L 260.1,179.8 L 261.3,180.0 L 262.4,180.2 L 263.6,180.4 L 264.8,180.6 L 266.0,180.7 L 267.2,180.9 L 268.4,181.1 L 269.6,181.3 L 270.8,181.5 L 271.9,181.7 L 273.1,181.8 L 274.3,182.0 L 275.5,182.2 L 276.7,182.4 L 277.9,182.5 L 279.1,182.7 L 280.3,182.9 L 281.5,183.1 L 282.6,183.2 L 283.8,183.4 L 285.0,183.6 L 286.2,183.7 L 287.4,183.9 L 288.6,184.1 L 289.8,184.2 L 291.0,184.4 L 292.1,184.6 L 293.3,184.7 L 294.5,184.9 L 295.7,185.1 L 296.9,185.2 L 298.1,185.4 L 298.1,185.4 L 61.7,185.4 Z" fill="url(#ce-grad)"/>

  <!-- Curve stroke -->
  <polyline points="61.7,30.5 62.9,46.0 64.0,56.5 65.2,64.3 66.4,70.6 67.6,75.9 68.8,80.4 70.0,84.4 71.2,87.9 72.4,91.1 73.6,94.0 74.7,96.6 75.9,99.1 77.1,101.3 78.3,103.5 79.5,105.5 80.7,107.3 81.9,109.1 83.1,110.8 84.2,112.4 85.4,113.9 86.6,115.4 87.8,116.7 89.0,118.1 90.2,119.3 91.4,120.6 92.6,121.8 93.7,122.9 94.9,124.0 96.1,125.1 97.3,126.1 98.5,127.1 99.7,128.1 100.9,129.0 102.1,129.9 103.3,130.8 104.4,131.7 105.6,132.5 106.8,133.3 108.0,134.1 109.2,134.9 110.4,135.7 111.6,136.4 112.8,137.2 113.9,137.9 115.1,138.6 116.3,139.2 117.5,139.9 118.7,140.6 119.9,141.2 121.1,141.8 122.3,142.4 123.4,143.0 124.6,143.6 125.8,144.2 127.0,144.8 128.2,145.4 129.4,145.9 130.6,146.5 131.8,147.0 133.0,147.5 134.1,148.0 135.3,148.5 136.5,149.0 137.7,149.5 138.9,150.0 140.1,150.5 141.3,151.0 142.5,151.4 143.6,151.9 144.8,152.3 146.0,152.8 147.2,153.2 148.4,153.7 149.6,154.1 150.8,154.5 152.0,154.9 153.1,155.3 154.3,155.7 155.5,156.1 156.7,156.5 157.9,156.9 159.1,157.3 160.3,157.7 161.5,158.1 162.7,158.4 163.8,158.8 165.0,159.2 166.2,159.5 167.4,159.9 168.6,160.2 169.8,160.6 171.0,160.9 172.2,161.3 173.3,161.6 174.5,161.9 175.7,162.3 176.9,162.6 178.1,162.9 179.3,163.2 180.5,163.6 181.7,163.9 182.8,164.2 184.0,164.5 185.2,164.8 186.4,165.1 187.6,165.4 188.8,165.7 190.0,166.0 191.2,166.3 192.4,166.6 193.5,166.9 194.7,167.1 195.9,167.4 197.1,167.7 198.3,168.0 199.5,168.2 200.7,168.5 201.9,168.8 203.0,169.1 204.2,169.3 205.4,169.6 206.6,169.8 207.8,170.1 209.0,170.4 210.2,170.6 211.4,170.9 212.5,171.1 213.7,171.4 214.9,171.6 216.1,171.9 217.3,172.1 218.5,172.3 219.7,172.6 220.9,172.8 222.1,173.1 223.2,173.3 224.4,173.5 225.6,173.7 226.8,174.0 228.0,174.2 229.2,174.4 230.4,174.7 231.6,174.9 232.7,175.1 233.9,175.3 235.1,175.5 236.3,175.8 237.5,176.0 238.7,176.2 239.9,176.4 241.1,176.6 242.2,176.8 243.4,177.0 244.6,177.2 245.8,177.4 247.0,177.6 248.2,177.8 249.4,178.0 250.6,178.2 251.8,178.4 252.9,178.6 254.1,178.8 255.3,179.0 256.5,179.2 257.7,179.4 258.9,179.6 260.1,179.8 261.3,180.0 262.4,180.2 263.6,180.4 264.8,180.6 266.0,180.7 267.2,180.9 268.4,181.1 269.6,181.3 270.8,181.5 271.9,181.7 273.1,181.8 274.3,182.0 275.5,182.2 276.7,182.4 277.9,182.5 279.1,182.7 280.3,182.9 281.5,183.1 282.6,183.2 283.8,183.4 285.0,183.6 286.2,183.7 287.4,183.9 288.6,184.1 289.8,184.2 291.0,184.4 292.1,184.6 293.3,184.7 294.5,184.9 295.7,185.1 296.9,185.2 298.1,185.4" fill="none" stroke="#cf1322" stroke-width="2.5"/>

  <!-- Annotation dots -->
  <circle cx="286.2" cy="183.7" r="3.5" fill="#52c41a" stroke="#fff" stroke-width="1.5"/>
  <line x1="286.2" y1="180" x2="270" y2="162" stroke="#52c41a" stroke-width="0.8" stroke-dasharray="2,2"/>
  <text x="268" y="155" class="anno" text-anchor="end" style="fill:#52c41a;font-weight:bold">confident &amp; right</text>
  <text x="268" y="165" class="anno" text-anchor="end" style="fill:#52c41a">loss ≈ 0</text>

  <circle cx="71.7" cy="89.3" r="3.5" fill="#cf1322" stroke="#fff" stroke-width="1.5"/>
  <text x="79.7" y="85.3" class="anno" text-anchor="start" style="fill:#cf1322;font-weight:bold">confident &amp; wrong</text>
  <text x="79.7" y="95.3" class="anno" text-anchor="start" style="fill:#cf1322">loss explodes</text>

  <!-- Bottom note -->
  <text x="170" y="237" class="anno" text-anchor="middle" style="font-size:10px;fill:#666">L = −log(ŷₖ) · Low confidence in the right answer → severe penalty</text>
</svg>
