<svg xmlns="http://www.w3.org/2000/svg" viewBox="0 0 520 250">
  <style>
    .bg { fill: #f8f9fa; }
    .panel { fill: #fff; stroke: #ccc; stroke-width: 1; }
    .title { font-family: 'Arial', sans-serif; font-size: 13px; font-weight: bold; text-anchor: middle; fill: #333; }
    .label-sm { font-family: 'Arial', sans-serif; font-size: 10px; text-anchor: middle; fill: #666; }
    .anno { font-family: 'Arial', sans-serif; font-size: 9px; fill: #888; }
  </style>
  <defs>
    <marker id="arr-main" markerWidth="7" markerHeight="5" refX="7" refY="2.5" orient="auto">
      <path d="M0,0 L7,2.5 L0,5 Z" fill="#999"/>
    </marker>
    <clipPath id="clip-left"><rect x="30" y="38" width="210" height="172"/></clipPath>
    <clipPath id="clip-right"><rect x="290" y="38" width="210" height="172"/></clipPath>
  </defs>

  <rect width="520" height="250" class="bg"/>

  <!-- Left panel -->
  <rect x="30" y="38" width="210" height="172" rx="3" class="panel"/>
  <text x="135" y="28" class="title">Input space</text>

  <g clip-path="url(#clip-left)">
    <!-- Failed separating line -->
    <line x1="45" y1="195" x2="225" y2="55" stroke="#cf1322" stroke-width="1.2" stroke-dasharray="5,3" opacity="0.5"/>
    <circle cx="151.4" cy="146.8" r="3" fill="#1890ff" opacity="0.7"/>
    <circle cx="151.4" cy="149.8" r="3" fill="#1890ff" opacity="0.7"/>
    <circle cx="150.6" cy="138.6" r="3" fill="#1890ff" opacity="0.7"/>
    <circle cx="154.8" cy="135.2" r="3" fill="#1890ff" opacity="0.7"/>
    <circle cx="151.8" cy="126.1" r="3" fill="#1890ff" opacity="0.7"/>
    <circle cx="152.4" cy="136.1" r="3" fill="#1890ff" opacity="0.7"/>
    <circle cx="153.0" cy="127.0" r="3" fill="#1890ff" opacity="0.7"/>
    <circle cx="151.1" cy="128.0" r="3" fill="#1890ff" opacity="0.7"/>
    <circle cx="130.7" cy="122.4" r="3" fill="#1890ff" opacity="0.7"/>
    <circle cx="147.0" cy="122.3" r="3" fill="#1890ff" opacity="0.7"/>
    <circle cx="140.8" cy="115.0" r="3" fill="#1890ff" opacity="0.7"/>
    <circle cx="142.6" cy="109.1" r="3" fill="#1890ff" opacity="0.7"/>
    <circle cx="133.2" cy="111.5" r="3" fill="#1890ff" opacity="0.7"/>
    <circle cx="132.7" cy="94.2" r="3" fill="#1890ff" opacity="0.7"/>
    <circle cx="135.6" cy="96.1" r="3" fill="#1890ff" opacity="0.7"/>
    <circle cx="136.3" cy="101.1" r="3" fill="#1890ff" opacity="0.7"/>
    <circle cx="130.7" cy="105.4" r="3" fill="#1890ff" opacity="0.7"/>
    <circle cx="120.5" cy="93.0" r="3" fill="#1890ff" opacity="0.7"/>
    <circle cx="122.3" cy="97.5" r="3" fill="#1890ff" opacity="0.7"/>
    <circle cx="120.7" cy="95.7" r="3" fill="#1890ff" opacity="0.7"/>
    <circle cx="108.0" cy="92.8" r="3" fill="#1890ff" opacity="0.7"/>
    <circle cx="105.2" cy="88.1" r="3" fill="#1890ff" opacity="0.7"/>
    <circle cx="106.1" cy="88.1" r="3" fill="#1890ff" opacity="0.7"/>
    <circle cx="102.4" cy="92.8" r="3" fill="#1890ff" opacity="0.7"/>
    <circle cx="103.8" cy="87.3" r="3" fill="#1890ff" opacity="0.7"/>
    <circle cx="101.9" cy="86.1" r="3" fill="#1890ff" opacity="0.7"/>
    <circle cx="88.4" cy="79.4" r="3" fill="#1890ff" opacity="0.7"/>
    <circle cx="72.2" cy="82.6" r="3" fill="#1890ff" opacity="0.7"/>
    <circle cx="77.9" cy="86.0" r="3" fill="#1890ff" opacity="0.7"/>
    <circle cx="75.1" cy="79.7" r="3" fill="#1890ff" opacity="0.7"/>
    <circle cx="74.1" cy="92.6" r="3" fill="#1890ff" opacity="0.7"/>
    <circle cx="74.5" cy="87.2" r="3" fill="#1890ff" opacity="0.7"/>
    <circle cx="73.3" cy="94.2" r="3" fill="#1890ff" opacity="0.7"/>
    <circle cx="71.7" cy="97.0" r="3" fill="#1890ff" opacity="0.7"/>
    <circle cx="66.8" cy="86.7" r="3" fill="#1890ff" opacity="0.7"/>
    <circle cx="47.8" cy="90.5" r="3" fill="#1890ff" opacity="0.7"/>
    <circle cx="47.8" cy="91.4" r="3" fill="#1890ff" opacity="0.7"/>
    <circle cx="49.2" cy="90.7" r="3" fill="#1890ff" opacity="0.7"/>
    <circle cx="46.0" cy="94.3" r="3" fill="#1890ff" opacity="0.7"/>
    <circle cx="46.0" cy="93.0" r="3" fill="#1890ff" opacity="0.7"/>
    <circle cx="46.0" cy="97.7" r="3" fill="#1890ff" opacity="0.7"/>
    <circle cx="46.0" cy="104.4" r="3" fill="#1890ff" opacity="0.7"/>
    <circle cx="46.0" cy="102.9" r="3" fill="#1890ff" opacity="0.7"/>
    <circle cx="46.0" cy="106.6" r="3" fill="#1890ff" opacity="0.7"/>
    <circle cx="46.0" cy="107.8" r="3" fill="#1890ff" opacity="0.7"/>
    <circle cx="46.0" cy="120.7" r="3" fill="#1890ff" opacity="0.7"/>
    <circle cx="46.0" cy="114.0" r="3" fill="#1890ff" opacity="0.7"/>
    <circle cx="46.0" cy="114.7" r="3" fill="#1890ff" opacity="0.7"/>
    <circle cx="46.0" cy="111.8" r="3" fill="#1890ff" opacity="0.7"/>
    <circle cx="46.0" cy="126.3" r="3" fill="#1890ff" opacity="0.7"/>
    <circle cx="46.0" cy="131.2" r="3" fill="#1890ff" opacity="0.7"/>
    <circle cx="46.0" cy="132.1" r="3" fill="#1890ff" opacity="0.7"/>
    <circle cx="46.0" cy="126.2" r="3" fill="#1890ff" opacity="0.7"/>
    <circle cx="46.0" cy="137.8" r="3" fill="#1890ff" opacity="0.7"/>
    <circle cx="46.0" cy="145.2" r="3" fill="#1890ff" opacity="0.7"/>
    <circle cx="82.7" cy="112.6" r="3" fill="#fa8c16" opacity="0.7"/>
    <circle cx="85.3" cy="120.7" r="3" fill="#fa8c16" opacity="0.7"/>
    <circle cx="85.1" cy="117.3" r="3" fill="#fa8c16" opacity="0.7"/>
    <circle cx="80.3" cy="131.1" r="3" fill="#fa8c16" opacity="0.7"/>
    <circle cx="85.4" cy="130.1" r="3" fill="#fa8c16" opacity="0.7"/>
    <circle cx="84.4" cy="130.6" r="3" fill="#fa8c16" opacity="0.7"/>
    <circle cx="89.4" cy="135.0" r="3" fill="#fa8c16" opacity="0.7"/>
    <circle cx="91.9" cy="146.6" r="3" fill="#fa8c16" opacity="0.7"/>
    <circle cx="85.4" cy="138.3" r="3" fill="#fa8c16" opacity="0.7"/>
    <circle cx="96.9" cy="150.3" r="3" fill="#fa8c16" opacity="0.7"/>
    <circle cx="94.9" cy="144.5" r="3" fill="#fa8c16" opacity="0.7"/>
    <circle cx="100.1" cy="149.0" r="3" fill="#fa8c16" opacity="0.7"/>
    <circle cx="96.3" cy="151.6" r="3" fill="#fa8c16" opacity="0.7"/>
    <circle cx="97.0" cy="161.8" r="3" fill="#fa8c16" opacity="0.7"/>
    <circle cx="107.0" cy="155.0" r="3" fill="#fa8c16" opacity="0.7"/>
    <circle cx="99.3" cy="163.9" r="3" fill="#fa8c16" opacity="0.7"/>
    <circle cx="110.3" cy="162.3" r="3" fill="#fa8c16" opacity="0.7"/>
    <circle cx="116.5" cy="154.4" r="3" fill="#fa8c16" opacity="0.7"/>
    <circle cx="113.6" cy="171.4" r="3" fill="#fa8c16" opacity="0.7"/>
    <circle cx="119.7" cy="165.5" r="3" fill="#fa8c16" opacity="0.7"/>
    <circle cx="113.5" cy="175.8" r="3" fill="#fa8c16" opacity="0.7"/>
    <circle cx="133.8" cy="172.0" r="3" fill="#fa8c16" opacity="0.7"/>
    <circle cx="136.9" cy="168.8" r="3" fill="#fa8c16" opacity="0.7"/>
    <circle cx="139.7" cy="172.2" r="3" fill="#fa8c16" opacity="0.7"/>
    <circle cx="149.3" cy="176.5" r="3" fill="#fa8c16" opacity="0.7"/>
    <circle cx="139.6" cy="180.8" r="3" fill="#fa8c16" opacity="0.7"/>
    <circle cx="150.8" cy="172.5" r="3" fill="#fa8c16" opacity="0.7"/>
    <circle cx="153.3" cy="178.6" r="3" fill="#fa8c16" opacity="0.7"/>
    <circle cx="163.7" cy="181.0" r="3" fill="#fa8c16" opacity="0.7"/>
    <circle cx="155.7" cy="177.5" r="3" fill="#fa8c16" opacity="0.7"/>
    <circle cx="163.2" cy="181.2" r="3" fill="#fa8c16" opacity="0.7"/>
    <circle cx="178.5" cy="173.5" r="3" fill="#fa8c16" opacity="0.7"/>
    <circle cx="169.1" cy="172.5" r="3" fill="#fa8c16" opacity="0.7"/>
    <circle cx="179.0" cy="170.2" r="3" fill="#fa8c16" opacity="0.7"/>
    <circle cx="177.5" cy="174.4" r="3" fill="#fa8c16" opacity="0.7"/>
    <circle cx="179.8" cy="160.9" r="3" fill="#fa8c16" opacity="0.7"/>
    <circle cx="175.7" cy="171.0" r="3" fill="#fa8c16" opacity="0.7"/>
    <circle cx="195.8" cy="167.6" r="3" fill="#fa8c16" opacity="0.7"/>
    <circle cx="194.0" cy="163.2" r="3" fill="#fa8c16" opacity="0.7"/>
    <circle cx="194.8" cy="160.2" r="3" fill="#fa8c16" opacity="0.7"/>
    <circle cx="198.9" cy="151.0" r="3" fill="#fa8c16" opacity="0.7"/>
    <circle cx="200.9" cy="151.9" r="3" fill="#fa8c16" opacity="0.7"/>
    <circle cx="209.6" cy="159.0" r="3" fill="#fa8c16" opacity="0.7"/>
    <circle cx="206.8" cy="156.9" r="3" fill="#fa8c16" opacity="0.7"/>
    <circle cx="202.5" cy="148.8" r="3" fill="#fa8c16" opacity="0.7"/>
    <circle cx="212.7" cy="148.7" r="3" fill="#fa8c16" opacity="0.7"/>
    <circle cx="214.9" cy="148.3" r="3" fill="#fa8c16" opacity="0.7"/>
    <circle cx="210.1" cy="140.6" r="3" fill="#fa8c16" opacity="0.7"/>
    <circle cx="205.4" cy="136.0" r="3" fill="#fa8c16" opacity="0.7"/>
    <circle cx="224.0" cy="136.2" r="3" fill="#fa8c16" opacity="0.7"/>
    <circle cx="220.3" cy="135.3" r="3" fill="#fa8c16" opacity="0.7"/>
    <circle cx="217.8" cy="128.6" r="3" fill="#fa8c16" opacity="0.7"/>
    <circle cx="219.2" cy="117.9" r="3" fill="#fa8c16" opacity="0.7"/>
    <circle cx="224.0" cy="127.0" r="3" fill="#fa8c16" opacity="0.7"/>
    <circle cx="223.6" cy="116.1" r="3" fill="#fa8c16" opacity="0.7"/>
  </g>

  <!-- "No line" label - positioned in clear space top-right of left panel -->
  <text x="135" y="222" class="anno" text-anchor="middle" style="fill:#cf1322;font-style:italic">no line separates these</text>

  <!-- Arrow between panels -->
  <line x1="248" y1="124" x2="282" y2="124" stroke="#999" stroke-width="1.5" marker-end="url(#arr-main)"/>
  <text x="265" y="108" class="anno" text-anchor="middle" style="font-weight:bold;fill:#555">hidden</text>
  <text x="265" y="118" class="anno" text-anchor="middle" style="font-weight:bold;fill:#555">layer</text>

  <!-- Right panel -->
  <rect x="290" y="38" width="210" height="172" rx="3" class="panel"/>
  <text x="395" y="28" class="title">After hidden layer</text>

  <g clip-path="url(#clip-right)">
    <!-- Separating line -->
    <line x1="290" y1="38" x2="500" y2="210" stroke="#52c41a" stroke-width="1.5" stroke-dasharray="5,3" opacity="0.6"/>
    <circle cx="367.0" cy="93.8" r="3" fill="#1890ff" opacity="0.7"/>
    <circle cx="366.5" cy="87.8" r="3" fill="#1890ff" opacity="0.7"/>
    <circle cx="368.1" cy="73.9" r="3" fill="#1890ff" opacity="0.7"/>
    <circle cx="340.9" cy="98.7" r="3" fill="#1890ff" opacity="0.7"/>
    <circle cx="359.7" cy="95.7" r="3" fill="#1890ff" opacity="0.7"/>
    <circle cx="341.7" cy="86.3" r="3" fill="#1890ff" opacity="0.7"/>
    <circle cx="358.3" cy="79.0" r="3" fill="#1890ff" opacity="0.7"/>
    <circle cx="349.5" cy="97.9" r="3" fill="#1890ff" opacity="0.7"/>
    <circle cx="363.9" cy="87.6" r="3" fill="#1890ff" opacity="0.7"/>
    <circle cx="360.1" cy="89.1" r="3" fill="#1890ff" opacity="0.7"/>
    <circle cx="369.2" cy="103.3" r="3" fill="#1890ff" opacity="0.7"/>
    <circle cx="361.8" cy="102.9" r="3" fill="#1890ff" opacity="0.7"/>
    <circle cx="352.9" cy="92.5" r="3" fill="#1890ff" opacity="0.7"/>
    <circle cx="341.0" cy="108.5" r="3" fill="#1890ff" opacity="0.7"/>
    <circle cx="363.9" cy="85.1" r="3" fill="#1890ff" opacity="0.7"/>
    <circle cx="352.3" cy="97.2" r="3" fill="#1890ff" opacity="0.7"/>
    <circle cx="331.3" cy="90.4" r="3" fill="#1890ff" opacity="0.7"/>
    <circle cx="346.3" cy="88.6" r="3" fill="#1890ff" opacity="0.7"/>
    <circle cx="348.4" cy="96.6" r="3" fill="#1890ff" opacity="0.7"/>
    <circle cx="352.4" cy="91.2" r="3" fill="#1890ff" opacity="0.7"/>
    <circle cx="364.4" cy="97.6" r="3" fill="#1890ff" opacity="0.7"/>
    <circle cx="356.9" cy="88.2" r="3" fill="#1890ff" opacity="0.7"/>
    <circle cx="359.5" cy="107.5" r="3" fill="#1890ff" opacity="0.7"/>
    <circle cx="353.7" cy="87.8" r="3" fill="#1890ff" opacity="0.7"/>
    <circle cx="341.7" cy="85.2" r="3" fill="#1890ff" opacity="0.7"/>
    <circle cx="372.3" cy="108.8" r="3" fill="#1890ff" opacity="0.7"/>
    <circle cx="370.3" cy="89.6" r="3" fill="#1890ff" opacity="0.7"/>
    <circle cx="360.3" cy="107.4" r="3" fill="#1890ff" opacity="0.7"/>
    <circle cx="354.8" cy="95.5" r="3" fill="#1890ff" opacity="0.7"/>
    <circle cx="356.9" cy="76.5" r="3" fill="#1890ff" opacity="0.7"/>
    <circle cx="355.8" cy="97.4" r="3" fill="#1890ff" opacity="0.7"/>
    <circle cx="343.9" cy="77.0" r="3" fill="#1890ff" opacity="0.7"/>
    <circle cx="347.1" cy="98.2" r="3" fill="#1890ff" opacity="0.7"/>
    <circle cx="358.4" cy="93.2" r="3" fill="#1890ff" opacity="0.7"/>
    <circle cx="361.6" cy="93.2" r="3" fill="#1890ff" opacity="0.7"/>
    <circle cx="352.5" cy="98.8" r="3" fill="#1890ff" opacity="0.7"/>
    <circle cx="343.5" cy="84.5" r="3" fill="#1890ff" opacity="0.7"/>
    <circle cx="377.2" cy="91.5" r="3" fill="#1890ff" opacity="0.7"/>
    <circle cx="352.9" cy="104.1" r="3" fill="#1890ff" opacity="0.7"/>
    <circle cx="348.9" cy="98.1" r="3" fill="#1890ff" opacity="0.7"/>
    <circle cx="352.0" cy="98.6" r="3" fill="#1890ff" opacity="0.7"/>
    <circle cx="346.6" cy="87.7" r="3" fill="#1890ff" opacity="0.7"/>
    <circle cx="368.1" cy="96.3" r="3" fill="#1890ff" opacity="0.7"/>
    <circle cx="349.6" cy="81.7" r="3" fill="#1890ff" opacity="0.7"/>
    <circle cx="341.4" cy="87.0" r="3" fill="#1890ff" opacity="0.7"/>
    <circle cx="347.0" cy="89.6" r="3" fill="#1890ff" opacity="0.7"/>
    <circle cx="355.5" cy="96.5" r="3" fill="#1890ff" opacity="0.7"/>
    <circle cx="347.4" cy="97.3" r="3" fill="#1890ff" opacity="0.7"/>
    <circle cx="350.2" cy="96.9" r="3" fill="#1890ff" opacity="0.7"/>
    <circle cx="354.0" cy="82.2" r="3" fill="#1890ff" opacity="0.7"/>
    <circle cx="341.2" cy="85.7" r="3" fill="#1890ff" opacity="0.7"/>
    <circle cx="345.9" cy="91.4" r="3" fill="#1890ff" opacity="0.7"/>
    <circle cx="353.8" cy="106.0" r="3" fill="#1890ff" opacity="0.7"/>
    <circle cx="365.3" cy="72.9" r="3" fill="#1890ff" opacity="0.7"/>
    <circle cx="353.8" cy="75.5" r="3" fill="#1890ff" opacity="0.7"/>
    <circle cx="419.8" cy="162.0" r="3" fill="#fa8c16" opacity="0.7"/>
    <circle cx="416.1" cy="158.6" r="3" fill="#fa8c16" opacity="0.7"/>
    <circle cx="442.1" cy="155.8" r="3" fill="#fa8c16" opacity="0.7"/>
    <circle cx="436.8" cy="154.1" r="3" fill="#fa8c16" opacity="0.7"/>
    <circle cx="424.4" cy="164.8" r="3" fill="#fa8c16" opacity="0.7"/>
    <circle cx="412.4" cy="161.1" r="3" fill="#fa8c16" opacity="0.7"/>
    <circle cx="437.1" cy="150.0" r="3" fill="#fa8c16" opacity="0.7"/>
    <circle cx="429.4" cy="145.6" r="3" fill="#fa8c16" opacity="0.7"/>
    <circle cx="470.7" cy="158.6" r="3" fill="#fa8c16" opacity="0.7"/>
    <circle cx="434.0" cy="139.0" r="3" fill="#fa8c16" opacity="0.7"/>
    <circle cx="432.2" cy="154.8" r="3" fill="#fa8c16" opacity="0.7"/>
    <circle cx="413.0" cy="174.2" r="3" fill="#fa8c16" opacity="0.7"/>
    <circle cx="439.9" cy="164.7" r="3" fill="#fa8c16" opacity="0.7"/>
    <circle cx="439.7" cy="155.2" r="3" fill="#fa8c16" opacity="0.7"/>
    <circle cx="434.4" cy="147.1" r="3" fill="#fa8c16" opacity="0.7"/>
    <circle cx="431.0" cy="163.2" r="3" fill="#fa8c16" opacity="0.7"/>
    <circle cx="438.9" cy="161.4" r="3" fill="#fa8c16" opacity="0.7"/>
    <circle cx="454.1" cy="158.0" r="3" fill="#fa8c16" opacity="0.7"/>
    <circle cx="435.6" cy="168.9" r="3" fill="#fa8c16" opacity="0.7"/>
    <circle cx="455.4" cy="150.5" r="3" fill="#fa8c16" opacity="0.7"/>
    <circle cx="443.3" cy="167.8" r="3" fill="#fa8c16" opacity="0.7"/>
    <circle cx="428.4" cy="141.7" r="3" fill="#fa8c16" opacity="0.7"/>
    <circle cx="442.0" cy="161.7" r="3" fill="#fa8c16" opacity="0.7"/>
    <circle cx="440.4" cy="175.3" r="3" fill="#fa8c16" opacity="0.7"/>
    <circle cx="449.8" cy="142.5" r="3" fill="#fa8c16" opacity="0.7"/>
    <circle cx="444.3" cy="174.3" r="3" fill="#fa8c16" opacity="0.7"/>
    <circle cx="424.5" cy="141.6" r="3" fill="#fa8c16" opacity="0.7"/>
    <circle cx="439.4" cy="164.4" r="3" fill="#fa8c16" opacity="0.7"/>
    <circle cx="450.5" cy="170.2" r="3" fill="#fa8c16" opacity="0.7"/>
    <circle cx="427.8" cy="156.6" r="3" fill="#fa8c16" opacity="0.7"/>
    <circle cx="443.0" cy="157.5" r="3" fill="#fa8c16" opacity="0.7"/>
    <circle cx="444.5" cy="159.7" r="3" fill="#fa8c16" opacity="0.7"/>
    <circle cx="449.1" cy="159.6" r="3" fill="#fa8c16" opacity="0.7"/>
    <circle cx="442.7" cy="159.3" r="3" fill="#fa8c16" opacity="0.7"/>
    <circle cx="444.9" cy="152.7" r="3" fill="#fa8c16" opacity="0.7"/>
    <circle cx="426.6" cy="164.5" r="3" fill="#fa8c16" opacity="0.7"/>
    <circle cx="435.9" cy="145.2" r="3" fill="#fa8c16" opacity="0.7"/>
    <circle cx="420.3" cy="161.5" r="3" fill="#fa8c16" opacity="0.7"/>
    <circle cx="433.7" cy="155.9" r="3" fill="#fa8c16" opacity="0.7"/>
    <circle cx="428.5" cy="143.4" r="3" fill="#fa8c16" opacity="0.7"/>
    <circle cx="432.5" cy="150.4" r="3" fill="#fa8c16" opacity="0.7"/>
    <circle cx="443.9" cy="152.1" r="3" fill="#fa8c16" opacity="0.7"/>
    <circle cx="448.0" cy="164.9" r="3" fill="#fa8c16" opacity="0.7"/>
    <circle cx="444.8" cy="158.3" r="3" fill="#fa8c16" opacity="0.7"/>
    <circle cx="429.8" cy="166.0" r="3" fill="#fa8c16" opacity="0.7"/>
    <circle cx="414.4" cy="155.3" r="3" fill="#fa8c16" opacity="0.7"/>
    <circle cx="447.0" cy="153.2" r="3" fill="#fa8c16" opacity="0.7"/>
    <circle cx="443.5" cy="171.0" r="3" fill="#fa8c16" opacity="0.7"/>
    <circle cx="437.1" cy="156.6" r="3" fill="#fa8c16" opacity="0.7"/>
    <circle cx="438.7" cy="161.0" r="3" fill="#fa8c16" opacity="0.7"/>
    <circle cx="441.8" cy="146.2" r="3" fill="#fa8c16" opacity="0.7"/>
    <circle cx="435.7" cy="159.1" r="3" fill="#fa8c16" opacity="0.7"/>
    <circle cx="444.9" cy="152.9" r="3" fill="#fa8c16" opacity="0.7"/>
    <circle cx="433.0" cy="158.6" r="3" fill="#fa8c16" opacity="0.7"/>
    <circle cx="418.4" cy="154.3" r="3" fill="#fa8c16" opacity="0.7"/>
  </g>

  <!-- "Simple line works" label - below right panel -->
  <text x="395" y="222" class="anno" text-anchor="middle" style="fill:#52c41a;font-style:italic">a simple line works!</text>

  <!-- Legend -->
  <circle cx="185" cy="242" r="4" fill="#1890ff" opacity="0.7"/>
  <text x="195" y="245" class="anno" text-anchor="start" style="fill:#555">class A</text>
  <circle cx="295" cy="242" r="4" fill="#fa8c16" opacity="0.7"/>
  <text x="305" y="245" class="anno" text-anchor="start" style="fill:#555">class B</text>
</svg>
